<?xml version="1.0" encoding="UTF-8"?>
<svg id="Layer_2" data-name="Layer 2" xmlns="http://www.w3.org/2000/svg" xmlns:xlink="http://www.w3.org/1999/xlink" viewBox="0 0 255.12 255.12">
  <defs>
    <style>
      .cls-1 {
        fill: none;
      }

      .cls-2 {
        fill: #c72626;
      }

      .cls-3 {
        fill: #fce900;
      }

      .cls-4 {
        clip-path: url(#clippath);
      }
    </style>
    <clipPath id="clippath">
      <rect class="cls-1" width="255.12" height="255.12" rx="34.69" ry="34.69"/>
    </clipPath>
  </defs>
  <g id="Layer_1-2" data-name="Layer 1">
    <g>
      <rect class="cls-2" width="255.12" height="255.12" rx="34.69" ry="34.69"/>
      <g class="cls-4">
        <g>
          <path class="cls-3" d="M.33,104.86l37.11-4.81,3.33,25.73c-4.1-3.56-9.36-4.7-21.99-3.06l-4.81.62,2.27,17.55,26.04-3.37,2.53,19.54-26.04,3.37,2.75,21.23-26.27,3.4-7.97-61.47c-1.54-11.85,1.4-17.23,13.03-18.74Z"/>
          <path class="cls-3" d="M47.15,98.79l7.35-.95c8.48-1.1,16.24,4.88,17.34,13.36l8.15,62.89-22.71,2.94-10.14-78.24Z"/>
          <path class="cls-3" d="M78.86,94.15c0-6.87,4.75-10.91,13.09-10.9,8.34.01,13.41,4.06,13.4,10.93,0,6.99-4.98,12.5-13.32,12.49-8.34-.01-13.18-5.54-13.17-12.53ZM94.92,112.15c2.81-.36,5.58-1.13,8.02-2.24,2.23-1.01,4.8.37,5.12,2.8l7.36,56.79-25.71,3.33-7.37-56.87c-.31-2.4,1.8-4.38,4.18-3.96,2.67.47,5.54.52,8.4.15Z"/>
          <path class="cls-3" d="M117.78,137.94c-2.51-19.34,9.7-34.78,30.93-37.53,4.22-.55,7.96-.46,10.92-.09,2.16.27,3.88,1.94,4.17,4.1l3,22.08c-4.28-5.07-7.18-7.16-12.74-6.44-8.72,1.13-12.63,7.82-11.72,14.86s7.39,12.38,14.32,11.48c5.24-.68,7.84-3.39,11.1-8.99.08-.13.27-.1.29.05l2.74,21.14c.28,2.17-.95,4.24-2.98,5.06-2.76,1.11-6.35,2.14-10.56,2.69-21.24,2.75-36.97-9.07-39.48-28.41Z"/>
          <path class="cls-3" d="M197.14,126.4l4.14,31.97-21.89,2.84-10.14-78.24,16.72-2.17c2.86-.37,5.47,1.65,5.85,4.5l4.36,33.61,8.55-23.5,22.79-2.95-11.02,24.61,20.66,36.64-19.27,2.5c-3.18.41-6.28-1.23-7.73-4.09l-13.01-25.72Z"/>
          <path class="cls-3" d="M242.36,142.25c-.97-7.49,3.94-13.47,11.98-14.51,8.05-1.04,14.32,3.49,15.29,10.97.98,7.6-3.92,13.58-11.97,14.62-8.05,1.04-14.32-3.49-15.3-11.09ZM234.83,79.81h0c-.38-2.9,1.67-5.56,4.57-5.93l15.65-2.03c2.9-.38,5.56,1.67,5.93,4.57h0c3.48,26.82,1.38,40.51-7.11,47.74-10.17-4.82-15.55-17.42-19.04-44.35ZM79.82,97.85c-1-1.35-.88-1.82-.95-4.33-.07-2.58,1.18-6.38,2.74-8.44,2.55-3.36,4.63-5.58,8.12-7.87.51,1.45.59,4.42,2.32,5.97l7.08-9.84c-1.4,6.72,7.73,15.26,6.2,21.95"/>
        </g>
      </g>
    </g>
  </g>
</svg>