<?xml version="1.0" encoding="UTF-8"?>
<svg id="Layer_2" data-name="Layer 2" xmlns="http://www.w3.org/2000/svg" viewBox="0 0 278.08 102.59">
  <defs>
    <style>
      .cls-1 {
        fill: #c72626;
      }
    </style>
  </defs>
  <g id="Layer_1-2" data-name="Layer 1">
    <g>
      <path class="cls-1" d="M15.32,21.52l37.42-.02v25.94c-3.59-4.06-8.67-5.86-21.4-5.85h-4.85s0,17.7,0,17.7h26.26s.01,19.69.01,19.69h-26.26s.01,21.43.01,21.43H.03S0,38.44,0,38.44c0-11.95,3.6-16.91,15.32-16.91Z"/>
      <path class="cls-1" d="M62.53,21.5h7.42c8.55,0,15.48,6.92,15.49,15.47l.04,63.41h-22.9s-.04-78.88-.04-78.88Z"/>
      <path class="cls-1" d="M121.17,43.09c-.01-2.45-2.38-4.15-4.72-3.43-2.57.78-5.41,1.19-8.25,1.19s-5.71-.41-8.3-1.22c-2.31-.72-4.66.97-4.66,3.39l.04,57.35,25.92-.02-.03-57.26Z"/>
      <path class="cls-1" d="M121.93,20.95c.01.9-.06,1.81-.19,2.7-.56,3.69-2.81,6.84-6.08,8.62-1.69.92-3.56,1.46-5.46,1.71-8.36,1.09-15.34-5.24-14.84-13.72.35-5.97,4.32-11.4,8.73-15.19.69,1.37,1.16,4.3,3.07,5.61C107.15,10.68,112.9,0,112.9,0c-.28,3.79,2.41,7.32,4.42,10.28,1.44,2.12,2.99,4.22,3.9,6.64.48,1.29.7,2.66.72,4.03Z"/>
      <path class="cls-1" d="M127.57,69.36c-.01-19.5,14.07-33.26,35.48-33.27,4.26,0,7.95.56,10.84,1.31,2.11.55,3.6,2.42,3.61,4.6l.15,22.28c-3.59-5.57-6.21-8.02-11.81-8.01-8.79,0-13.53,6.13-13.52,13.23,0,7.1,5.75,13.22,12.74,13.22,5.28,0,8.21-2.36,12.16-7.5.09-.12.28-.06.28.09v21.32c.01,2.19-1.47,4.09-3.59,4.64-2.88.75-6.57,1.31-10.82,1.31-21.41.01-35.51-13.73-35.52-33.23Z"/>
      <path class="cls-1" d="M207.76,68.07l.02,32.23h-22.07s-.04-78.88-.04-78.88h16.86c2.88-.01,5.22,2.32,5.22,5.21l.02,33.89,11.48-22.21h22.98s-14.07,22.99-14.07,22.99l15.8,38.99h-19.43c-3.21.01-6.07-2.01-7.14-5.04l-9.61-27.18Z"/>
      <path class="cls-1" d="M278.08,89.56c0,7.66-5.63,12.96-13.74,12.97-8.12,0-13.76-5.29-13.76-12.96,0-7.55,5.63-12.85,13.74-12.85,8.12-.01,13.75,5.29,13.76,12.84Z"/>
      <path class="cls-1" d="M277.48,26.67v.21c0,26.91-3.83,40.16-13.16,46.23-9.47-6.08-13.2-19.27-13.21-46.43,0-2.92,2.37-5.3,5.29-5.3h15.78c2.93-.01,5.3,2.36,5.3,5.29Z"/>
    </g>
  </g>
</svg>